name ./resultDataOpenSim/trcMotMarkerGrf/sub06/grf-12-07.mot
datacolumns 19
datarows 10
range 1.50400000 1.54000000
endheader

                time	     ground_force_vx	     ground_force_vy	     ground_force_vz	     ground_force_px	     ground_force_py	     ground_force_pz	   l_ground_force_vx	   l_ground_force_vy	   l_ground_force_vz	   l_ground_force_px	   l_ground_force_py	   l_ground_force_pz	     ground_torque_x	     ground_torque_y	     ground_torque_z	   l_ground_torque_x	   l_ground_torque_y	   l_ground_torque_z	
          1.50400000	        136.28151870	        684.02592481	        -24.23422449	          0.79812634	          0.00000000	          0.08408344	          0.00000000	          0.00000000	          0.00000000	          0.00000000	          0.00000000	          0.00000000	          0.00000000	          4.28544867	          0.00000000	          0.00000000	          0.00000000	          0.00000000	
          1.50800000	        142.74365630	        688.47242358	        -25.62887731	          0.79831309	          0.00000000	          0.08396379	          0.00000000	          0.00000000	          0.00000000	          0.00000000	          0.00000000	          0.00000000	          0.00000000	          4.35565934	          0.00000000	          0.00000000	          0.00000000	          0.00000000	
          1.51200000	        149.15829576	        691.54652376	        -27.26407713	          0.79848824	          0.00000000	          0.08386345	          0.00000000	          0.00000000	          0.00000000	          0.00000000	          0.00000000	          0.00000000	          0.00000000	          4.43835446	          0.00000000	          0.00000000	          0.00000000	          0.00000000	
          1.51600000	        155.37915805	        693.13670756	        -28.83201077	          0.79866593	          0.00000000	          0.08377754	          0.00000000	          0.00000000	          0.00000000	          0.00000000	          0.00000000	          0.00000000	          0.00000000	          4.51143375	          0.00000000	          0.00000000	          0.00000000	          0.00000000	
          1.52000000	        161.30309752	        693.14185704	        -30.03823017	          0.79885433	          0.00000000	          0.08369831	          0.00000000	          0.00000000	          0.00000000	          0.00000000	          0.00000000	          0.00000000	          0.00000000	          4.55489315	          0.00000000	          0.00000000	          0.00000000	          0.00000000	
          1.52400000	        166.92188026	        691.46192528	        -30.64932924	          0.79905183	          0.00000000	          0.08361428	          0.00000000	          0.00000000	          0.00000000	          0.00000000	          0.00000000	          0.00000000	          0.00000000	          4.55319665	          0.00000000	          0.00000000	          0.00000000	          0.00000000	
          1.52800000	        172.36129456	        687.99466094	        -30.52494126	          0.79926163	          0.00000000	          0.08351568	          0.00000000	          0.00000000	          0.00000000	          0.00000000	          0.00000000	          0.00000000	          0.00000000	          4.49635607	          0.00000000	          0.00000000	          0.00000000	          0.00000000	
          1.53200000	        177.84987368	        682.62943912	        -29.64550864	          0.79944844	          0.00000000	          0.08339612	          0.00000000	          0.00000000	          0.00000000	          0.00000000	          0.00000000	          0.00000000	          0.00000000	          4.38051653	          0.00000000	          0.00000000	          0.00000000	          0.00000000	
          1.53600000	        183.60104849	        675.23622555	        -28.13536402	          0.79953216	          0.00000000	          0.08325857	          0.00000000	          0.00000000	          0.00000000	          0.00000000	          0.00000000	          0.00000000	          0.00000000	          4.20888163	          0.00000000	          0.00000000	          0.00000000	          0.00000000	
          1.54000000	        189.69014868	        665.66946521	        -26.23506898	          0.79946338	          0.00000000	          0.08311756	          0.00000000	          0.00000000	          0.00000000	          0.00000000	          0.00000000	          0.00000000	          0.00000000	          3.99283181	          0.00000000	          0.00000000	          0.00000000	          0.00000000	
